<svg width="100" height="32" viewBox="0 0 100 32" fill="none" xmlns="http://www.w3.org/2000/svg">
<path d="M4.72913 16.82L11.2342 30.7436C11.4294 31.1614 12.0241 31.1596 12.2168 30.7407L18.6728 16.7099C18.8638 16.2948 18.8638 15.817 18.6728 15.402L12.2168 1.37108C12.0241 0.952196 11.4294 0.950464 11.2342 1.36822L4.72913 15.2918C4.50289 15.7761 4.50289 16.3357 4.72913 16.82Z" fill="white"/>
<path d="M21.5182 4.09373L20.4816 6.31248C20.3314 6.63408 20.3303 7.00552 20.4787 7.32799L23.9728 14.9218C24.1201 15.2421 24.1201 15.6107 23.9728 15.9309L20.4787 23.5248C20.3303 23.8472 20.3314 24.2187 20.4816 24.5403L21.5182 26.759C21.6688 27.0814 22.1277 27.08 22.2764 26.7568L27.2577 15.9309C27.405 15.6107 27.405 15.2421 27.2577 14.9218L22.2764 4.09593C22.1277 3.77273 21.6688 3.77139 21.5182 4.09373Z" fill="white"/>
<path d="M28.8864 22L32.8864 15L28.8864 8L37.9716 8.84615C38.9848 8.84615 39.8205 8.99439 40.4787 9.29087C41.1368 9.58333 41.6269 9.97796 41.9489 10.4748C42.2708 10.9675 42.4318 11.5144 42.4318 12.1154C42.4318 12.6442 42.3205 13.0809 42.098 13.4255C41.8802 13.77 41.5914 14.0425 41.2315 14.2428C40.8764 14.4431 40.4905 14.5913 40.0739 14.6875V14.8077C40.5189 14.8317 40.9664 14.9639 41.4162 15.2043C41.866 15.4447 42.2424 15.7893 42.5454 16.238C42.8485 16.6867 43 17.2356 43 17.8846C43 18.5016 42.8343 19.0565 42.5028 19.5493C42.1714 20.0421 41.6482 20.4327 40.9332 20.7212C40.2183 21.0096 39.2879 21.1538 38.142 21.1538L28.8864 22ZM33.6477 19.8317H38.142C39.2926 19.8317 40.1094 19.6434 40.5923 19.2668C41.08 18.8862 41.3239 18.4255 41.3239 17.8846C41.3239 17.4679 41.1984 17.0833 40.9474 16.7308C40.6965 16.3742 40.339 16.0897 39.875 15.8774C39.411 15.6611 38.8617 15.5529 38.2273 15.5529H34.6477L33.6477 19.8317ZM34.6477 14.2548H37.9148C38.4451 14.2548 38.9233 14.1667 39.3494 13.9904C39.7803 13.8141 40.1212 13.5657 40.3721 13.2452C40.6278 12.9247 40.7557 12.5481 40.7557 12.1154C40.7557 11.5745 40.5331 11.1158 40.0881 10.7392C39.643 10.3586 38.9375 10.1683 37.9716 10.1683H33.6477L34.6477 14.2548Z" fill="white"/>
<path d="M44.8942 21.1538V8.84615H50.8089C51.9453 8.84615 52.8781 9.01042 53.6072 9.33894C54.3364 9.66346 54.8762 10.1102 55.2266 10.6791C55.5769 11.248 55.7521 11.895 55.7521 12.6202C55.7521 13.3454 55.5769 13.9884 55.2266 14.5493C54.8762 15.1102 54.3388 15.5509 53.6143 15.8714C52.8899 16.1879 51.9642 16.3462 50.8373 16.3462H46.8601V15H50.7805C51.557 15 52.182 14.9038 52.6555 14.7115C53.1337 14.5192 53.4794 14.2468 53.6925 13.8942C53.9103 13.5377 54.0192 13.113 54.0192 12.6202C54.0192 12.1274 53.9103 11.6967 53.6925 11.3281C53.4747 10.9595 53.1266 10.6751 52.6484 10.4748C52.1702 10.2704 51.5381 10.1683 50.7521 10.1683H47.6555V21.1538H44.8942ZM52.7408 15.625L56.3203 21.1538H54.2748L50.7521 15.625H52.7408Z" fill="white"/>
<path d="M59.2837 21.1538H56.4371L61.778 8.84615H64.5962L69.9371 21.1538H68.0905L63.7439 10.7933H63.6303L59.2837 21.1538ZM59.9655 16.3462H67.4087V17.6683H59.9655V16.3462Z" fill="white"/>
<path d="M82.7369 8.84615V21.1538H81.0323L73.1062 11.4904H72.9641V21.1538H70.2028V8.84615H72.9073L80.8619 18.5337H81.0039V8.84615H82.7369Z" fill="white"/>
<path d="M89.75 21.1538H84.2614V8.84615H89.9489C91.3598 8.84615 92.5672 9.09255 93.571 9.58534C94.5748 10.0741 95.3442 10.7772 95.8792 11.6947C96.4143 12.6082 96.6818 13.7019 96.6818 14.976C96.6818 16.258 96.4119 17.3618 95.8721 18.2873C95.3324 19.2087 94.5464 19.9179 93.5142 20.4147C92.482 20.9075 91.2273 21.1538 89.75 21.1538ZM87.0227 19.8317H89.6364C90.839 19.8317 91.8357 19.6354 92.6264 19.2428C93.4171 18.8502 94.0066 18.2913 94.3949 17.5661C94.7831 16.8409 94.9773 15.9776 94.9773 14.976C94.9773 13.9824 94.7855 13.127 94.402 12.4099C94.0185 11.6887 93.4455 11.1358 92.6832 10.7512C91.9209 10.3626 90.9716 10.1683 89.8352 10.1683H87.0227V19.8317Z" fill="white"/>
</svg>
